<mxfile host="app.diagrams.net" modified="2021-11-07T20:27:29.797Z" agent="5.0 (Windows NT 10.0; Win64; x64) AppleWebKit/537.36 (KHTML, like Gecko) Chrome/95.0.4638.69 Safari/537.36" etag="Uf9FF-Kga9an5yN7A5Rr" version="15.7.0" type="github">
  <diagram id="kgpKYQtTHZ0yAKxKKP6v" name="Page-1">
    <mxGraphModel dx="1038" dy="538" grid="1" gridSize="10" guides="1" tooltips="1" connect="1" arrows="1" fold="1" page="1" pageScale="1" pageWidth="850" pageHeight="1100" math="0" shadow="0">
      <root>
        <mxCell id="0" />
        <mxCell id="1" parent="0" />
        <mxCell id="3nuBFxr9cyL0pnOWT2aG-1" value="Interface Utilisateur" style="shape=umlLifeline;perimeter=lifelinePerimeter;container=1;collapsible=0;recursiveResize=0;rounded=0;shadow=0;strokeWidth=1;" parent="1" vertex="1">
          <mxGeometry x="340" y="80" width="120" height="440" as="geometry" />
        </mxCell>
        <mxCell id="3nuBFxr9cyL0pnOWT2aG-5" value="Chat System" style="shape=umlLifeline;perimeter=lifelinePerimeter;container=1;collapsible=0;recursiveResize=0;rounded=0;shadow=0;strokeWidth=1;" parent="1" vertex="1">
          <mxGeometry x="550" y="80" width="100" height="440" as="geometry" />
        </mxCell>
        <mxCell id="4t51wZ5_S1L5AYQhhtwo-6" value="checkUnique(newPseudo)" style="text;html=1;align=center;verticalAlign=middle;resizable=0;points=[];autosize=1;strokeColor=none;fillColor=none;" vertex="1" parent="3nuBFxr9cyL0pnOWT2aG-5">
          <mxGeometry x="-130" y="80" width="160" height="20" as="geometry" />
        </mxCell>
        <mxCell id="4t51wZ5_S1L5AYQhhtwo-1" value="User Local" style="shape=umlActor;verticalLabelPosition=bottom;verticalAlign=top;html=1;" vertex="1" parent="1">
          <mxGeometry x="190" y="40" width="30" height="60" as="geometry" />
        </mxCell>
        <mxCell id="4t51wZ5_S1L5AYQhhtwo-2" value="" style="endArrow=none;dashed=1;html=1;rounded=0;" edge="1" parent="1">
          <mxGeometry width="50" height="50" relative="1" as="geometry">
            <mxPoint x="200" y="520" as="sourcePoint" />
            <mxPoint x="200" y="120" as="targetPoint" />
          </mxGeometry>
        </mxCell>
        <mxCell id="4t51wZ5_S1L5AYQhhtwo-3" value="" style="endArrow=classic;html=1;rounded=0;" edge="1" parent="1" target="3nuBFxr9cyL0pnOWT2aG-1">
          <mxGeometry width="50" height="50" relative="1" as="geometry">
            <mxPoint x="200" y="160" as="sourcePoint" />
            <mxPoint x="280" y="140" as="targetPoint" />
          </mxGeometry>
        </mxCell>
        <mxCell id="4t51wZ5_S1L5AYQhhtwo-4" value="rename(newPseudo)" style="text;html=1;align=center;verticalAlign=middle;resizable=0;points=[];autosize=1;strokeColor=none;fillColor=none;" vertex="1" parent="1">
          <mxGeometry x="235" y="140" width="130" height="20" as="geometry" />
        </mxCell>
        <mxCell id="4t51wZ5_S1L5AYQhhtwo-8" value="Alternative" style="shape=umlFrame;tabWidth=110;tabHeight=30;tabPosition=left;html=1;boundedLbl=1;labelInHeader=1;width=80;height=20;" vertex="1" parent="1">
          <mxGeometry x="80" y="200" width="600" height="180" as="geometry" />
        </mxCell>
        <mxCell id="4t51wZ5_S1L5AYQhhtwo-9" value="[Pseudo is unique]" style="text" vertex="1" parent="4t51wZ5_S1L5AYQhhtwo-8">
          <mxGeometry width="100" height="20" relative="1" as="geometry">
            <mxPoint x="10" y="20" as="offset" />
          </mxGeometry>
        </mxCell>
        <mxCell id="4t51wZ5_S1L5AYQhhtwo-10" value="[Else]" style="line;strokeWidth=1;dashed=1;labelPosition=center;verticalLabelPosition=bottom;align=left;verticalAlign=top;spacingLeft=20;spacingTop=15;" vertex="1" parent="4t51wZ5_S1L5AYQhhtwo-8">
          <mxGeometry y="86.4" width="600" height="7.2" as="geometry" />
        </mxCell>
        <mxCell id="4t51wZ5_S1L5AYQhhtwo-11" value="" style="html=1;verticalAlign=bottom;labelBackgroundColor=none;endArrow=open;endFill=0;dashed=1;rounded=0;" edge="1" parent="4t51wZ5_S1L5AYQhhtwo-8">
          <mxGeometry width="160" relative="1" as="geometry">
            <mxPoint x="516.7254098360656" y="28.8" as="sourcePoint" />
            <mxPoint x="320.00409836065575" y="28.8" as="targetPoint" />
            <Array as="points">
              <mxPoint x="433.1188524590164" y="28.8" />
            </Array>
          </mxGeometry>
        </mxCell>
        <mxCell id="4t51wZ5_S1L5AYQhhtwo-12" value="return(valid)" style="edgeLabel;html=1;align=center;verticalAlign=middle;resizable=0;points=[];" vertex="1" connectable="0" parent="4t51wZ5_S1L5AYQhhtwo-11">
          <mxGeometry x="0.012" y="-2" relative="1" as="geometry">
            <mxPoint x="1" y="-8" as="offset" />
          </mxGeometry>
        </mxCell>
        <mxCell id="4t51wZ5_S1L5AYQhhtwo-13" value="" style="html=1;verticalAlign=bottom;labelBackgroundColor=none;endArrow=open;endFill=0;dashed=1;rounded=0;" edge="1" parent="4t51wZ5_S1L5AYQhhtwo-8">
          <mxGeometry width="160" relative="1" as="geometry">
            <mxPoint x="316.7240983606558" y="43.2" as="sourcePoint" />
            <mxPoint x="120.0027868852459" y="43.2" as="targetPoint" />
            <Array as="points">
              <mxPoint x="233.11754098360655" y="43.2" />
            </Array>
          </mxGeometry>
        </mxCell>
        <mxCell id="4t51wZ5_S1L5AYQhhtwo-14" value="display(valid)" style="edgeLabel;html=1;align=center;verticalAlign=middle;resizable=0;points=[];" vertex="1" connectable="0" parent="4t51wZ5_S1L5AYQhhtwo-13">
          <mxGeometry x="0.012" y="-2" relative="1" as="geometry">
            <mxPoint x="1" y="-8" as="offset" />
          </mxGeometry>
        </mxCell>
        <mxCell id="4t51wZ5_S1L5AYQhhtwo-15" value="" style="html=1;verticalAlign=bottom;labelBackgroundColor=none;endArrow=open;endFill=0;dashed=1;rounded=0;" edge="1" parent="4t51wZ5_S1L5AYQhhtwo-8">
          <mxGeometry width="160" relative="1" as="geometry">
            <mxPoint x="516.7254098360656" y="117.3913043478261" as="sourcePoint" />
            <mxPoint x="320.00409836065575" y="117.3913043478261" as="targetPoint" />
            <Array as="points">
              <mxPoint x="433.1188524590164" y="117.3913043478261" />
            </Array>
          </mxGeometry>
        </mxCell>
        <mxCell id="4t51wZ5_S1L5AYQhhtwo-16" value="return(invalid)" style="edgeLabel;html=1;align=center;verticalAlign=middle;resizable=0;points=[];" vertex="1" connectable="0" parent="4t51wZ5_S1L5AYQhhtwo-15">
          <mxGeometry x="0.012" y="-2" relative="1" as="geometry">
            <mxPoint x="11" y="-8" as="offset" />
          </mxGeometry>
        </mxCell>
        <mxCell id="4t51wZ5_S1L5AYQhhtwo-17" value="" style="html=1;verticalAlign=bottom;labelBackgroundColor=none;endArrow=open;endFill=0;dashed=1;rounded=0;" edge="1" parent="4t51wZ5_S1L5AYQhhtwo-8">
          <mxGeometry width="160" relative="1" as="geometry">
            <mxPoint x="316.7240983606558" y="133.04347826086956" as="sourcePoint" />
            <mxPoint x="120.0027868852459" y="133.04347826086956" as="targetPoint" />
            <Array as="points">
              <mxPoint x="233.11754098360655" y="133.04347826086956" />
            </Array>
          </mxGeometry>
        </mxCell>
        <mxCell id="4t51wZ5_S1L5AYQhhtwo-18" value="display(invalid)" style="edgeLabel;html=1;align=center;verticalAlign=middle;resizable=0;points=[];" vertex="1" connectable="0" parent="4t51wZ5_S1L5AYQhhtwo-17">
          <mxGeometry x="0.012" y="-2" relative="1" as="geometry">
            <mxPoint x="1" y="-8" as="offset" />
          </mxGeometry>
        </mxCell>
        <mxCell id="4t51wZ5_S1L5AYQhhtwo-5" value="" style="endArrow=classic;html=1;rounded=0;" edge="1" parent="1">
          <mxGeometry width="50" height="50" relative="1" as="geometry">
            <mxPoint x="400.25" y="180" as="sourcePoint" />
            <mxPoint x="599.75" y="180" as="targetPoint" />
          </mxGeometry>
        </mxCell>
        <mxCell id="4t51wZ5_S1L5AYQhhtwo-19" value="" style="endArrow=classic;html=1;rounded=0;" edge="1" parent="1">
          <mxGeometry width="50" height="50" relative="1" as="geometry">
            <mxPoint x="400" y="420" as="sourcePoint" />
            <mxPoint x="200" y="420" as="targetPoint" />
          </mxGeometry>
        </mxCell>
        <mxCell id="4t51wZ5_S1L5AYQhhtwo-20" value="display(newPseudo)" style="edgeLabel;html=1;align=center;verticalAlign=middle;resizable=0;points=[];" vertex="1" connectable="0" parent="4t51wZ5_S1L5AYQhhtwo-19">
          <mxGeometry x="0.112" y="-8" relative="1" as="geometry">
            <mxPoint x="11" as="offset" />
          </mxGeometry>
        </mxCell>
        <mxCell id="4t51wZ5_S1L5AYQhhtwo-22" value="" style="endArrow=classic;html=1;rounded=0;exitX=0.513;exitY=0.816;exitDx=0;exitDy=0;exitPerimeter=0;" edge="1" parent="1" source="3nuBFxr9cyL0pnOWT2aG-1" target="3nuBFxr9cyL0pnOWT2aG-5">
          <mxGeometry width="50" height="50" relative="1" as="geometry">
            <mxPoint x="420" y="480" as="sourcePoint" />
            <mxPoint x="470" y="430" as="targetPoint" />
          </mxGeometry>
        </mxCell>
        <mxCell id="4t51wZ5_S1L5AYQhhtwo-23" value="sendNotification(newPseudo)" style="text;html=1;align=center;verticalAlign=middle;resizable=0;points=[];autosize=1;strokeColor=none;fillColor=none;" vertex="1" parent="1">
          <mxGeometry x="415" y="420" width="170" height="20" as="geometry" />
        </mxCell>
      </root>
    </mxGraphModel>
  </diagram>
</mxfile>
